<svg width="182" height="72" viewBox="0 0 182 72" fill="none" xmlns="http://www.w3.org/2000/svg">
<path d="M4.65625 71C1.96875 71 1.40625 69.8594 2.96875 67.5781L18.4844 45.0781L4.79688 25.2031C3.23438 22.9219 3.79688 21.7812 6.48438 21.7812H15.3438C16.75 21.7812 17.8125 22.4062 18.5312 23.6562L25.7969 36.3125L33.0625 23.6562C33.7812 22.4062 34.8438 21.7812 36.25 21.7812H45.1094C47.8281 21.7812 48.3906 22.9219 46.7969 25.2031L33.0156 45.0781L48.625 67.5781C50.2188 69.8594 49.6562 71 46.9375 71H38.0781C36.7031 71 35.6406 70.375 34.8906 69.125L25.7969 53.8438L16.7031 69.125C15.9531 70.375 14.8906 71 13.5156 71H4.65625ZM52.6562 46.3906C52.6562 38.4219 54.7031 32.1719 58.7969 27.6406C62.9219 23.1094 69.0469 20.8438 77.1719 20.8438C85.2969 20.8438 91.4062 23.1094 95.5 27.6406C99.625 32.1719 101.688 38.4219 101.688 46.3906C101.688 54.3594 99.625 60.6094 95.5 65.1406C91.4062 69.6719 85.2969 71.9375 77.1719 71.9375C69.0469 71.9375 62.9219 69.6719 58.7969 65.1406C54.7031 60.6094 52.6562 54.3594 52.6562 46.3906ZM66.5312 46.3906C66.5312 52.3281 67.4375 56.5469 69.25 59.0469C71.0938 61.5156 73.7344 62.75 77.1719 62.75C80.6094 62.75 83.2344 61.5156 85.0469 59.0469C86.8906 56.5469 87.8125 52.3281 87.8125 46.3906C87.8125 40.4531 86.8906 36.25 85.0469 33.7812C83.2344 31.2812 80.6094 30.0312 77.1719 30.0312C73.7344 30.0312 71.0938 31.2812 69.25 33.7812C67.4375 36.25 66.5312 40.4531 66.5312 46.3906ZM109.188 46.3906C109.188 38.4219 111.234 32.1719 115.328 27.6406C119.453 23.1094 125.578 20.8438 133.703 20.8438C141.828 20.8438 147.938 23.1094 152.031 27.6406C156.156 32.1719 158.219 38.4219 158.219 46.3906C158.219 54.3594 156.156 60.6094 152.031 65.1406C147.938 69.6719 141.828 71.9375 133.703 71.9375C125.578 71.9375 119.453 69.6719 115.328 65.1406C111.234 60.6094 109.188 54.3594 109.188 46.3906ZM123.062 46.3906C123.062 52.3281 123.969 56.5469 125.781 59.0469C127.625 61.5156 130.266 62.75 133.703 62.75C137.141 62.75 139.766 61.5156 141.578 59.0469C143.422 56.5469 144.344 52.3281 144.344 46.3906C144.344 40.4531 143.422 36.25 141.578 33.7812C139.766 31.2812 137.141 30.0312 133.703 30.0312C130.266 30.0312 127.625 31.2812 125.781 33.7812C123.969 36.25 123.062 40.4531 123.062 46.3906ZM171.156 71C169.281 71 168.344 70.0625 168.344 68.1875V12.8281C168.344 11.4219 168.672 10.1406 169.328 8.98438L172.938 2.65625C173.625 1.46875 174.438 0.875 175.375 0.875H178.656C180.531 0.875 181.469 1.8125 181.469 3.6875V68.1875C181.469 70.0625 180.531 71 178.656 71H171.156Z" fill="black"/>
</svg>
